<mxfile host="app.diagrams.net" modified="2024-03-22T20:51:16.127Z" agent="Mozilla/5.0 (Windows NT 10.0; Win64; x64) AppleWebKit/537.36 (KHTML, like Gecko) Chrome/120.0.0.0 YaBrowser/24.1.0.0 Safari/537.36" etag="OM7mBIMTcxqikiF8NkUz" version="23.1.8" type="google">
  <diagram name="Страница — 1" id="j93UKnRLr3luePKZLkut">
    <mxGraphModel grid="1" page="1" gridSize="10" guides="1" tooltips="1" connect="1" arrows="1" fold="1" pageScale="1" pageWidth="827" pageHeight="1169" math="0" shadow="0">
      <root>
        <mxCell id="0" />
        <mxCell id="1" parent="0" />
        <mxCell id="C9lhTE95io52mAebtXfu-1" value="GUI" style="shape=module;align=left;spacingLeft=20;align=center;verticalAlign=top;whiteSpace=wrap;html=1;" vertex="1" parent="1">
          <mxGeometry x="60" y="430" width="100" height="50" as="geometry" />
        </mxCell>
        <mxCell id="C9lhTE95io52mAebtXfu-2" value="" style="rounded=0;orthogonalLoop=1;jettySize=auto;html=1;endArrow=halfCircle;endFill=0;endSize=6;strokeWidth=1;sketch=0;" edge="1" parent="1" target="C9lhTE95io52mAebtXfu-4">
          <mxGeometry relative="1" as="geometry">
            <mxPoint x="280" y="455" as="sourcePoint" />
          </mxGeometry>
        </mxCell>
        <mxCell id="C9lhTE95io52mAebtXfu-3" value="" style="rounded=0;orthogonalLoop=1;jettySize=auto;html=1;endArrow=oval;endFill=0;sketch=0;sourcePerimeterSpacing=0;targetPerimeterSpacing=0;endSize=10;exitX=1;exitY=0.5;exitDx=0;exitDy=0;" edge="1" parent="1" source="C9lhTE95io52mAebtXfu-1" target="C9lhTE95io52mAebtXfu-4">
          <mxGeometry relative="1" as="geometry">
            <mxPoint x="480" y="440" as="sourcePoint" />
          </mxGeometry>
        </mxCell>
        <mxCell id="C9lhTE95io52mAebtXfu-4" value="" style="ellipse;whiteSpace=wrap;html=1;align=center;aspect=fixed;fillColor=none;strokeColor=none;resizable=0;perimeter=centerPerimeter;rotatable=0;allowArrows=0;points=[];outlineConnect=1;" vertex="1" parent="1">
          <mxGeometry x="210" y="450" width="10" height="10" as="geometry" />
        </mxCell>
        <mxCell id="C9lhTE95io52mAebtXfu-5" value="API-Gateway" style="shape=module;align=left;spacingLeft=20;align=center;verticalAlign=top;whiteSpace=wrap;html=1;" vertex="1" parent="1">
          <mxGeometry x="270" y="430" width="100" height="50" as="geometry" />
        </mxCell>
        <mxCell id="C9lhTE95io52mAebtXfu-6" value="SignUp-Handler" style="shape=module;align=left;spacingLeft=20;align=center;verticalAlign=top;whiteSpace=wrap;html=1;" vertex="1" parent="1">
          <mxGeometry x="460" y="310" width="100" height="50" as="geometry" />
        </mxCell>
        <mxCell id="C9lhTE95io52mAebtXfu-7" value="LogIn-Handler" style="shape=module;align=left;spacingLeft=20;align=center;verticalAlign=top;whiteSpace=wrap;html=1;" vertex="1" parent="1">
          <mxGeometry x="460" y="377.75" width="100" height="50" as="geometry" />
        </mxCell>
        <mxCell id="C9lhTE95io52mAebtXfu-9" value="Log-out-Handler" style="shape=module;align=left;spacingLeft=20;align=center;verticalAlign=top;whiteSpace=wrap;html=1;" vertex="1" parent="1">
          <mxGeometry x="460" y="480" width="100" height="50" as="geometry" />
        </mxCell>
        <mxCell id="C9lhTE95io52mAebtXfu-10" value="Change-password-Handler" style="shape=module;align=left;spacingLeft=20;align=center;verticalAlign=top;whiteSpace=wrap;html=1;" vertex="1" parent="1">
          <mxGeometry x="460" y="550" width="100" height="50" as="geometry" />
        </mxCell>
        <mxCell id="C9lhTE95io52mAebtXfu-11" value="" style="rounded=0;orthogonalLoop=1;jettySize=auto;html=1;endArrow=halfCircle;endFill=0;endSize=6;strokeWidth=1;sketch=0;exitX=1;exitY=0;exitDx=0;exitDy=0;" edge="1" parent="1" source="C9lhTE95io52mAebtXfu-5" target="C9lhTE95io52mAebtXfu-13">
          <mxGeometry relative="1" as="geometry">
            <mxPoint x="530" y="455" as="sourcePoint" />
          </mxGeometry>
        </mxCell>
        <mxCell id="C9lhTE95io52mAebtXfu-12" value="" style="rounded=0;orthogonalLoop=1;jettySize=auto;html=1;endArrow=oval;endFill=0;sketch=0;sourcePerimeterSpacing=0;targetPerimeterSpacing=0;endSize=10;exitX=0;exitY=1;exitDx=10;exitDy=0;exitPerimeter=0;" edge="1" parent="1" source="C9lhTE95io52mAebtXfu-6" target="C9lhTE95io52mAebtXfu-13">
          <mxGeometry relative="1" as="geometry">
            <mxPoint x="410" y="420" as="sourcePoint" />
          </mxGeometry>
        </mxCell>
        <mxCell id="C9lhTE95io52mAebtXfu-13" value="" style="ellipse;whiteSpace=wrap;html=1;align=center;aspect=fixed;fillColor=none;strokeColor=none;resizable=0;perimeter=centerPerimeter;rotatable=0;allowArrows=0;points=[];outlineConnect=1;" vertex="1" parent="1">
          <mxGeometry x="417" y="390" width="10" height="10" as="geometry" />
        </mxCell>
        <mxCell id="C9lhTE95io52mAebtXfu-18" value="" style="rounded=0;orthogonalLoop=1;jettySize=auto;html=1;endArrow=halfCircle;endFill=0;endSize=6;strokeWidth=1;sketch=0;exitX=1;exitY=0.25;exitDx=0;exitDy=0;" edge="1" parent="1" source="C9lhTE95io52mAebtXfu-5" target="C9lhTE95io52mAebtXfu-20">
          <mxGeometry relative="1" as="geometry">
            <mxPoint x="530" y="375" as="sourcePoint" />
          </mxGeometry>
        </mxCell>
        <mxCell id="C9lhTE95io52mAebtXfu-19" value="" style="rounded=0;orthogonalLoop=1;jettySize=auto;html=1;endArrow=oval;endFill=0;sketch=0;sourcePerimeterSpacing=0;targetPerimeterSpacing=0;endSize=10;exitX=0;exitY=1;exitDx=10;exitDy=0;exitPerimeter=0;" edge="1" parent="1" source="C9lhTE95io52mAebtXfu-7" target="C9lhTE95io52mAebtXfu-20">
          <mxGeometry relative="1" as="geometry">
            <mxPoint x="490" y="375" as="sourcePoint" />
          </mxGeometry>
        </mxCell>
        <mxCell id="C9lhTE95io52mAebtXfu-20" value="" style="ellipse;whiteSpace=wrap;html=1;align=center;aspect=fixed;fillColor=none;strokeColor=none;resizable=0;perimeter=centerPerimeter;rotatable=0;allowArrows=0;points=[];outlineConnect=1;" vertex="1" parent="1">
          <mxGeometry x="417" y="427.75" width="10" height="10" as="geometry" />
        </mxCell>
        <mxCell id="C9lhTE95io52mAebtXfu-23" value="" style="ellipse;whiteSpace=wrap;html=1;align=center;aspect=fixed;fillColor=none;strokeColor=none;resizable=0;perimeter=centerPerimeter;rotatable=0;allowArrows=0;points=[];outlineConnect=1;" vertex="1" parent="1">
          <mxGeometry x="417" y="450" width="10" height="10" as="geometry" />
        </mxCell>
        <mxCell id="C9lhTE95io52mAebtXfu-25" value="" style="rounded=0;orthogonalLoop=1;jettySize=auto;html=1;endArrow=halfCircle;endFill=0;endSize=6;strokeWidth=1;sketch=0;exitX=1;exitY=0.75;exitDx=0;exitDy=0;" edge="1" parent="1" source="C9lhTE95io52mAebtXfu-5" target="C9lhTE95io52mAebtXfu-27">
          <mxGeometry relative="1" as="geometry">
            <mxPoint x="470" y="445" as="sourcePoint" />
          </mxGeometry>
        </mxCell>
        <mxCell id="C9lhTE95io52mAebtXfu-26" value="" style="rounded=0;orthogonalLoop=1;jettySize=auto;html=1;endArrow=oval;endFill=0;sketch=0;sourcePerimeterSpacing=0;targetPerimeterSpacing=0;endSize=10;exitX=0;exitY=0;exitDx=10;exitDy=0;exitPerimeter=0;" edge="1" parent="1" source="C9lhTE95io52mAebtXfu-9" target="C9lhTE95io52mAebtXfu-27">
          <mxGeometry relative="1" as="geometry">
            <mxPoint x="430" y="445" as="sourcePoint" />
          </mxGeometry>
        </mxCell>
        <mxCell id="C9lhTE95io52mAebtXfu-27" value="" style="ellipse;whiteSpace=wrap;html=1;align=center;aspect=fixed;fillColor=none;strokeColor=none;resizable=0;perimeter=centerPerimeter;rotatable=0;allowArrows=0;points=[];outlineConnect=1;" vertex="1" parent="1">
          <mxGeometry x="417" y="470" width="10" height="10" as="geometry" />
        </mxCell>
        <mxCell id="C9lhTE95io52mAebtXfu-28" value="" style="rounded=0;orthogonalLoop=1;jettySize=auto;html=1;endArrow=halfCircle;endFill=0;endSize=6;strokeWidth=1;sketch=0;exitX=1;exitY=1;exitDx=0;exitDy=0;" edge="1" parent="1" source="C9lhTE95io52mAebtXfu-5" target="C9lhTE95io52mAebtXfu-30">
          <mxGeometry relative="1" as="geometry">
            <mxPoint x="470" y="525" as="sourcePoint" />
          </mxGeometry>
        </mxCell>
        <mxCell id="C9lhTE95io52mAebtXfu-29" value="" style="rounded=0;orthogonalLoop=1;jettySize=auto;html=1;endArrow=oval;endFill=0;sketch=0;sourcePerimeterSpacing=0;targetPerimeterSpacing=0;endSize=10;exitX=0;exitY=0;exitDx=10;exitDy=0;exitPerimeter=0;" edge="1" parent="1" source="C9lhTE95io52mAebtXfu-10" target="C9lhTE95io52mAebtXfu-30">
          <mxGeometry relative="1" as="geometry">
            <mxPoint x="430" y="525" as="sourcePoint" />
          </mxGeometry>
        </mxCell>
        <mxCell id="C9lhTE95io52mAebtXfu-30" value="" style="ellipse;whiteSpace=wrap;html=1;align=center;aspect=fixed;fillColor=none;strokeColor=none;resizable=0;perimeter=centerPerimeter;rotatable=0;allowArrows=0;points=[];outlineConnect=1;" vertex="1" parent="1">
          <mxGeometry x="417" y="510" width="10" height="10" as="geometry" />
        </mxCell>
        <mxCell id="C9lhTE95io52mAebtXfu-32" value="DB sign up manager" style="shape=module;align=left;spacingLeft=20;align=center;verticalAlign=top;whiteSpace=wrap;html=1;" vertex="1" parent="1">
          <mxGeometry x="620" y="310" width="100" height="50" as="geometry" />
        </mxCell>
        <mxCell id="C9lhTE95io52mAebtXfu-33" value="DB log in manager" style="shape=module;align=left;spacingLeft=20;align=center;verticalAlign=top;whiteSpace=wrap;html=1;" vertex="1" parent="1">
          <mxGeometry x="620" y="377.75" width="100" height="50" as="geometry" />
        </mxCell>
        <mxCell id="C9lhTE95io52mAebtXfu-34" value="DB log-out manager" style="shape=module;align=left;spacingLeft=20;align=center;verticalAlign=top;whiteSpace=wrap;html=1;" vertex="1" parent="1">
          <mxGeometry x="620" y="480" width="100" height="50" as="geometry" />
        </mxCell>
        <mxCell id="C9lhTE95io52mAebtXfu-35" value="DB change password manager" style="shape=module;align=left;spacingLeft=20;align=center;verticalAlign=top;whiteSpace=wrap;html=1;" vertex="1" parent="1">
          <mxGeometry x="620" y="550" width="100" height="50" as="geometry" />
        </mxCell>
        <mxCell id="C9lhTE95io52mAebtXfu-36" value="СУБД" style="shape=module;align=left;spacingLeft=20;align=center;verticalAlign=top;whiteSpace=wrap;html=1;" vertex="1" parent="1">
          <mxGeometry x="810" y="430" width="100" height="50" as="geometry" />
        </mxCell>
        <mxCell id="C9lhTE95io52mAebtXfu-37" value="Менеджер почтового сервера" style="shape=module;align=left;spacingLeft=20;align=center;verticalAlign=top;whiteSpace=wrap;html=1;" vertex="1" parent="1">
          <mxGeometry x="460" y="670" width="100" height="50" as="geometry" />
        </mxCell>
        <mxCell id="C9lhTE95io52mAebtXfu-38" value="" style="rounded=0;orthogonalLoop=1;jettySize=auto;html=1;endArrow=halfCircle;endFill=0;endSize=6;strokeWidth=1;sketch=0;exitX=1;exitY=0.5;exitDx=0;exitDy=0;" edge="1" parent="1" source="C9lhTE95io52mAebtXfu-10" target="C9lhTE95io52mAebtXfu-40">
          <mxGeometry relative="1" as="geometry">
            <mxPoint x="520" y="565" as="sourcePoint" />
          </mxGeometry>
        </mxCell>
        <mxCell id="C9lhTE95io52mAebtXfu-39" value="" style="rounded=0;orthogonalLoop=1;jettySize=auto;html=1;endArrow=oval;endFill=0;sketch=0;sourcePerimeterSpacing=0;targetPerimeterSpacing=0;endSize=10;exitX=0.107;exitY=0.497;exitDx=0;exitDy=0;exitPerimeter=0;" edge="1" parent="1" source="C9lhTE95io52mAebtXfu-35" target="C9lhTE95io52mAebtXfu-40">
          <mxGeometry relative="1" as="geometry">
            <mxPoint x="480" y="565" as="sourcePoint" />
          </mxGeometry>
        </mxCell>
        <mxCell id="C9lhTE95io52mAebtXfu-40" value="" style="ellipse;whiteSpace=wrap;html=1;align=center;aspect=fixed;fillColor=none;strokeColor=none;resizable=0;perimeter=centerPerimeter;rotatable=0;allowArrows=0;points=[];outlineConnect=1;" vertex="1" parent="1">
          <mxGeometry x="590" y="570" width="10" height="10" as="geometry" />
        </mxCell>
        <mxCell id="C9lhTE95io52mAebtXfu-41" value="" style="rounded=0;orthogonalLoop=1;jettySize=auto;html=1;endArrow=halfCircle;endFill=0;endSize=6;strokeWidth=1;sketch=0;exitX=0.5;exitY=1;exitDx=0;exitDy=0;" edge="1" parent="1" source="C9lhTE95io52mAebtXfu-10" target="C9lhTE95io52mAebtXfu-43">
          <mxGeometry relative="1" as="geometry">
            <mxPoint x="530" y="620" as="sourcePoint" />
          </mxGeometry>
        </mxCell>
        <mxCell id="C9lhTE95io52mAebtXfu-42" value="" style="rounded=0;orthogonalLoop=1;jettySize=auto;html=1;endArrow=oval;endFill=0;sketch=0;sourcePerimeterSpacing=0;targetPerimeterSpacing=0;endSize=10;exitX=0.5;exitY=0;exitDx=0;exitDy=0;" edge="1" parent="1" source="C9lhTE95io52mAebtXfu-37" target="C9lhTE95io52mAebtXfu-43">
          <mxGeometry relative="1" as="geometry">
            <mxPoint x="670" y="685" as="sourcePoint" />
          </mxGeometry>
        </mxCell>
        <mxCell id="C9lhTE95io52mAebtXfu-43" value="" style="ellipse;whiteSpace=wrap;html=1;align=center;aspect=fixed;fillColor=none;strokeColor=none;resizable=0;perimeter=centerPerimeter;rotatable=0;allowArrows=0;points=[];outlineConnect=1;" vertex="1" parent="1">
          <mxGeometry x="505" y="630" width="10" height="10" as="geometry" />
        </mxCell>
        <mxCell id="C9lhTE95io52mAebtXfu-44" value="" style="rounded=0;orthogonalLoop=1;jettySize=auto;html=1;endArrow=halfCircle;endFill=0;endSize=6;strokeWidth=1;sketch=0;exitX=1;exitY=0.5;exitDx=0;exitDy=0;" edge="1" parent="1">
          <mxGeometry relative="1" as="geometry">
            <mxPoint x="559.5" y="504.71" as="sourcePoint" />
            <mxPoint x="594.5" y="504.71" as="targetPoint" />
          </mxGeometry>
        </mxCell>
        <mxCell id="C9lhTE95io52mAebtXfu-45" value="" style="rounded=0;orthogonalLoop=1;jettySize=auto;html=1;endArrow=oval;endFill=0;sketch=0;sourcePerimeterSpacing=0;targetPerimeterSpacing=0;endSize=10;exitX=0.107;exitY=0.497;exitDx=0;exitDy=0;exitPerimeter=0;" edge="1" parent="1">
          <mxGeometry relative="1" as="geometry">
            <mxPoint x="630.5" y="504.71" as="sourcePoint" />
            <mxPoint x="594.5" y="504.71" as="targetPoint" />
          </mxGeometry>
        </mxCell>
        <mxCell id="C9lhTE95io52mAebtXfu-46" value="" style="rounded=0;orthogonalLoop=1;jettySize=auto;html=1;endArrow=halfCircle;endFill=0;endSize=6;strokeWidth=1;sketch=0;exitX=1;exitY=0.5;exitDx=0;exitDy=0;" edge="1" parent="1">
          <mxGeometry relative="1" as="geometry">
            <mxPoint x="559.5" y="402.46000000000004" as="sourcePoint" />
            <mxPoint x="594.5" y="402.46000000000004" as="targetPoint" />
          </mxGeometry>
        </mxCell>
        <mxCell id="C9lhTE95io52mAebtXfu-47" value="" style="rounded=0;orthogonalLoop=1;jettySize=auto;html=1;endArrow=oval;endFill=0;sketch=0;sourcePerimeterSpacing=0;targetPerimeterSpacing=0;endSize=10;exitX=0.107;exitY=0.497;exitDx=0;exitDy=0;exitPerimeter=0;" edge="1" parent="1">
          <mxGeometry relative="1" as="geometry">
            <mxPoint x="630.5" y="402.46000000000004" as="sourcePoint" />
            <mxPoint x="594.5" y="402.46000000000004" as="targetPoint" />
          </mxGeometry>
        </mxCell>
        <mxCell id="C9lhTE95io52mAebtXfu-48" value="" style="rounded=0;orthogonalLoop=1;jettySize=auto;html=1;endArrow=halfCircle;endFill=0;endSize=6;strokeWidth=1;sketch=0;exitX=1;exitY=0.5;exitDx=0;exitDy=0;" edge="1" parent="1">
          <mxGeometry relative="1" as="geometry">
            <mxPoint x="559.5" y="334.71000000000004" as="sourcePoint" />
            <mxPoint x="594.5" y="334.71000000000004" as="targetPoint" />
          </mxGeometry>
        </mxCell>
        <mxCell id="C9lhTE95io52mAebtXfu-49" value="" style="rounded=0;orthogonalLoop=1;jettySize=auto;html=1;endArrow=oval;endFill=0;sketch=0;sourcePerimeterSpacing=0;targetPerimeterSpacing=0;endSize=10;exitX=0.107;exitY=0.497;exitDx=0;exitDy=0;exitPerimeter=0;" edge="1" parent="1">
          <mxGeometry relative="1" as="geometry">
            <mxPoint x="630.5" y="334.71000000000004" as="sourcePoint" />
            <mxPoint x="594.5" y="334.71000000000004" as="targetPoint" />
          </mxGeometry>
        </mxCell>
        <mxCell id="C9lhTE95io52mAebtXfu-50" value="" style="rounded=0;orthogonalLoop=1;jettySize=auto;html=1;endArrow=halfCircle;endFill=0;endSize=6;strokeWidth=1;sketch=0;exitX=1;exitY=0.5;exitDx=0;exitDy=0;" edge="1" parent="1" source="C9lhTE95io52mAebtXfu-32" target="C9lhTE95io52mAebtXfu-52">
          <mxGeometry relative="1" as="geometry">
            <mxPoint x="560" y="475" as="sourcePoint" />
          </mxGeometry>
        </mxCell>
        <mxCell id="C9lhTE95io52mAebtXfu-51" value="" style="rounded=0;orthogonalLoop=1;jettySize=auto;html=1;endArrow=oval;endFill=0;sketch=0;sourcePerimeterSpacing=0;targetPerimeterSpacing=0;endSize=10;exitX=0;exitY=0;exitDx=10;exitDy=0;exitPerimeter=0;" edge="1" parent="1" source="C9lhTE95io52mAebtXfu-36" target="C9lhTE95io52mAebtXfu-52">
          <mxGeometry relative="1" as="geometry">
            <mxPoint x="520" y="475" as="sourcePoint" />
          </mxGeometry>
        </mxCell>
        <mxCell id="C9lhTE95io52mAebtXfu-52" value="" style="ellipse;whiteSpace=wrap;html=1;align=center;aspect=fixed;fillColor=none;strokeColor=none;resizable=0;perimeter=centerPerimeter;rotatable=0;allowArrows=0;points=[];outlineConnect=1;" vertex="1" parent="1">
          <mxGeometry x="770" y="380" width="10" height="10" as="geometry" />
        </mxCell>
        <mxCell id="C9lhTE95io52mAebtXfu-53" value="" style="rounded=0;orthogonalLoop=1;jettySize=auto;html=1;endArrow=halfCircle;endFill=0;endSize=6;strokeWidth=1;sketch=0;exitX=1;exitY=0.5;exitDx=0;exitDy=0;" edge="1" parent="1" source="C9lhTE95io52mAebtXfu-34" target="C9lhTE95io52mAebtXfu-55">
          <mxGeometry relative="1" as="geometry">
            <mxPoint x="560" y="475" as="sourcePoint" />
          </mxGeometry>
        </mxCell>
        <mxCell id="C9lhTE95io52mAebtXfu-54" value="" style="rounded=0;orthogonalLoop=1;jettySize=auto;html=1;endArrow=oval;endFill=0;sketch=0;sourcePerimeterSpacing=0;targetPerimeterSpacing=0;endSize=10;exitX=0;exitY=1;exitDx=10;exitDy=0;exitPerimeter=0;" edge="1" parent="1" source="C9lhTE95io52mAebtXfu-36" target="C9lhTE95io52mAebtXfu-55">
          <mxGeometry relative="1" as="geometry">
            <mxPoint x="520" y="475" as="sourcePoint" />
          </mxGeometry>
        </mxCell>
        <mxCell id="C9lhTE95io52mAebtXfu-55" value="" style="ellipse;whiteSpace=wrap;html=1;align=center;aspect=fixed;fillColor=none;strokeColor=none;resizable=0;perimeter=centerPerimeter;rotatable=0;allowArrows=0;points=[];outlineConnect=1;" vertex="1" parent="1">
          <mxGeometry x="760" y="490" width="10" height="10" as="geometry" />
        </mxCell>
        <mxCell id="C9lhTE95io52mAebtXfu-56" value="" style="rounded=0;orthogonalLoop=1;jettySize=auto;html=1;endArrow=halfCircle;endFill=0;endSize=6;strokeWidth=1;sketch=0;exitX=1;exitY=0.5;exitDx=0;exitDy=0;" edge="1" parent="1" source="C9lhTE95io52mAebtXfu-33" target="C9lhTE95io52mAebtXfu-58">
          <mxGeometry relative="1" as="geometry">
            <mxPoint x="560" y="475" as="sourcePoint" />
          </mxGeometry>
        </mxCell>
        <mxCell id="C9lhTE95io52mAebtXfu-57" value="" style="rounded=0;orthogonalLoop=1;jettySize=auto;html=1;endArrow=oval;endFill=0;sketch=0;sourcePerimeterSpacing=0;targetPerimeterSpacing=0;endSize=10;" edge="1" parent="1" target="C9lhTE95io52mAebtXfu-58">
          <mxGeometry relative="1" as="geometry">
            <mxPoint x="820" y="430" as="sourcePoint" />
          </mxGeometry>
        </mxCell>
        <mxCell id="C9lhTE95io52mAebtXfu-58" value="" style="ellipse;whiteSpace=wrap;html=1;align=center;aspect=fixed;fillColor=none;strokeColor=none;resizable=0;perimeter=centerPerimeter;rotatable=0;allowArrows=0;points=[];outlineConnect=1;" vertex="1" parent="1">
          <mxGeometry x="760" y="410" width="10" height="10" as="geometry" />
        </mxCell>
        <mxCell id="C9lhTE95io52mAebtXfu-62" value="" style="rounded=0;orthogonalLoop=1;jettySize=auto;html=1;endArrow=halfCircle;endFill=0;endSize=6;strokeWidth=1;sketch=0;exitX=1;exitY=0.5;exitDx=0;exitDy=0;" edge="1" parent="1" source="C9lhTE95io52mAebtXfu-35" target="C9lhTE95io52mAebtXfu-64">
          <mxGeometry relative="1" as="geometry">
            <mxPoint x="790" y="485" as="sourcePoint" />
          </mxGeometry>
        </mxCell>
        <mxCell id="C9lhTE95io52mAebtXfu-63" value="" style="rounded=0;orthogonalLoop=1;jettySize=auto;html=1;endArrow=oval;endFill=0;sketch=0;sourcePerimeterSpacing=0;targetPerimeterSpacing=0;endSize=10;exitX=0;exitY=1;exitDx=10;exitDy=0;exitPerimeter=0;" edge="1" parent="1" source="C9lhTE95io52mAebtXfu-36" target="C9lhTE95io52mAebtXfu-64">
          <mxGeometry relative="1" as="geometry">
            <mxPoint x="750" y="485" as="sourcePoint" />
          </mxGeometry>
        </mxCell>
        <mxCell id="C9lhTE95io52mAebtXfu-64" value="" style="ellipse;whiteSpace=wrap;html=1;align=center;aspect=fixed;fillColor=none;strokeColor=none;resizable=0;perimeter=centerPerimeter;rotatable=0;allowArrows=0;points=[];outlineConnect=1;" vertex="1" parent="1">
          <mxGeometry x="770" y="520" width="10" height="10" as="geometry" />
        </mxCell>
      </root>
    </mxGraphModel>
  </diagram>
</mxfile>
